<?xml version="1.0" encoding="UTF-8"?>
<svg id="Layer_1" xmlns="http://www.w3.org/2000/svg" viewBox="0 0 100 98.08">
  <defs>
    <style>
      .cls-1 {
        fill: #00513a;
      }

      .cls-2 {
        fill: #faf6ee;
      }
    </style>
  </defs>
  <circle class="cls-2" cx="50" cy="49.04" r="49"/>
  <g>
    <path class="cls-1" d="M33.58,75.95c4.97-3.54,9.94-7.08,15.03-10.71-5.61-3.33-9.33-7.98-11.58-13.75-1.41-3.62-1.33-7.21,1.28-10.43,2.35-2.89,5.9-3.51,9.01-1.42.7.47,1.01.48,1.51-.21.69-.95,1.56-1.77,2.54-2.43,5.27-3.56,11.25-.78,12.02,5.54.57,4.66-1.04,8.63-3.6,12.36-2.6,3.79-5.87,6.95-9.57,9.98,2.22,1.12,4.46,1.3,6.63.9,7.92-1.47,14.7-5.02,19.6-11.58,4.56-6.11,4.65-14.45.67-20.96-4.69-7.66-11.62-11.24-20.38-11.69-7.01-.36-13.93.11-20.6,2.5-6.32,2.27-11.33,6.13-14.17,12.38-4.25,9.38-1.64,20.3,6.19,25.95.34.24,1.05.45.7.97-.34.5-.79-.08-1.11-.32-5.01-3.65-7.83-8.65-8.39-14.75-1.09-11.92,5.14-21.15,17.17-25.17,8.81-2.95,17.88-3.44,26.95-1.27,10.85,2.6,18.43,13.44,17.1,24.46-.61,5.05-3.31,9.07-7.11,12.36-4.91,4.25-10.53,6.99-16.99,7.92-2.12.31-4.2-.01-6.19-.75-.68-.26-1.12-.15-1.66.25-5.01,3.64-10.03,7.27-15.06,10.89-.35.25-.73.82-1.17.49-.38-.28-.11-.85-.02-1.29.66-3.21.61-6.4-.31-9.56-.12-.41-.66-1.11.06-1.29.7-.18.58.71.71,1.11.84,2.74.87,5.55.6,8.38-.03.33-.27.67.12,1.14ZM51.38,47.44c0,.59,0,.75,0,.9-.03,1.91-.9,3.26-2.2,3.42-1.38.17-2.65-.98-2.99-2.91-.38-2.17-.04-4.28.8-6.31.79-1.89.74-2.07-1.17-2.89-.94-.41-1.92-.63-2.98-.42-3.91.76-6.57,4.99-5.84,9.28.5,2.95,1.86,5.51,3.51,7.93,2.09,3.07,4.48,5.85,7.82,7.66.53.29.94.55,1.6,0,3.09-2.55,6.04-5.24,8.38-8.51,2.47-3.45,4.5-7.1,4.42-11.54-.07-3.94-2.1-7.06-5.13-7.68-3.47-.71-6.01.91-8.14,3.48-.55.67-.61,1.09-.06,1.82,1.37,1.81,1.88,3.95,1.99,5.75ZM48.34,41.53c-1.33,2.65-1.95,5.12-1.2,7.76.25.89.75,1.81,1.88,1.7,1.03-.1,1.36-.97,1.48-1.88.35-2.72-.47-5.11-2.16-7.58Z"/>
    <g>
      <path class="cls-1" d="M33.58,75.93s15-10.73,15-10.73c-2.98-1.51-6.03-4.38-8.14-7.26-2.08-2.99-3.94-6.36-4.36-10.03-.68-6.32,5.8-12.5,11.67-8.15.44.26.75-.05,1-.41,1.65-2.21,4.23-3.88,7.04-4.02,6.54-.31,8.87,6.83,7.55,12.23-1.74,7.3-7.46,12.78-13.01,17.43,0,0-.03-.24-.03-.24,1.58.81,3.37,1.18,5.14,1.06,5.3-.63,10.52-2.58,14.87-5.69,13.84-9.71,12.22-26.82-1.83-35.34-6.34-3.58-13.91-3.53-20.98-3.04-15.25,1.12-28.71,9.67-27.26,26.52.62,5.76,3.78,11.3,8.68,14.45.39.29.11,1-.37.99-3.95-2.36-7.02-6.37-8.42-10.78-1.09-3.45-1.23-7.16-.81-10.73,1.93-15.87,18.91-21.85,32.96-21.84,7.13.09,14.78,1.18,20.37,5.98,4.81,4.11,8.01,10.18,8.23,16.54.27,4.53-1.18,9.14-4.09,12.63-5.22,6.19-12.88,10.36-20.94,11.3-1.81.16-3.64-.14-5.34-.75-.95-.49-1.61-.07-2.35.53-2.87,2.06-10.33,7.45-13.11,9.45,0,0-1.09.79-1.09.79-.41.24-.66.61-1.09.81-1.31.17-.38-1.6-.37-2.27.49-3.07.43-6.34-.68-9.27-.08-.19-.14-.5.09-.66.2-.12.46-.2.68-.04.91,2.52,1.16,5.29,1.01,7.98-.04.67-.07,1.36-.21,2.01-.03.22.08.44.2.6h0ZM33.57,75.97c-.17-.18-.25-.4-.23-.64.37-2.42.33-4.95-.13-7.36-.09-.44-.19-.88-.32-1.3-.18-.41-.06-.94-.35-1.26-.36-.21-.9.08-.64.62,1.13,2.94,1.2,6.23.72,9.32-.03.64-.43,1.32-.28,1.94.49.66,1.08-.38,1.55-.6,3.37-2.45,10.72-7.78,14.17-10.29.37-.25.7-.57,1.16-.73.47-.16.97,0,1.37.16.84.3,1.71.52,2.59.64,8.64.57,17.91-4.72,23.38-11.19,7.17-8.55,4.05-21.95-4.13-28.7-8.01-6.71-21-6.78-30.79-4.72-12.56,2.52-22.58,10.72-22.21,24.36-.02,6.92,3.21,13.13,8.9,17.08.3.29.67-.18.4-.4-.14-.13-.34-.22-.54-.35-4.62-3.3-7.59-8.66-8.18-14.28-1.42-16.97,12.11-25.59,27.49-26.69,7.09-.46,14.68-.5,21.06,3.07,9.51,5.27,14.96,17.86,9.2,27.76-3.71,6.24-10.07,10.6-16.99,12.57-3.49,1.06-7.43,1.84-10.78-.08,2.89-2.37,5.65-4.92,8-7.82,2.27-2.84,4.28-6.01,5.06-9.59,1.29-5.22-.87-12.2-7.23-11.91-3.1.09-5.5,2.19-7.39,4.42-.75.31-1.32-.52-1.95-.74-5.43-2.98-10.92,3.28-10.21,8.63,1.1,7.24,6.19,13.6,12.39,17.31.25.06-15.07,10.69-15.06,10.77h0Z"/>
      <path class="cls-1" d="M51.4,47.44c.03,1.12.02,2.33-.63,3.31-1.79,2.49-4.55.26-4.71-2.17-.38-2.27.15-4.61,1.05-6.69.18-.51.4-1.11-.05-1.42-.41-.32-.96-.53-1.47-.74-2.07-.95-4.51-.1-6.09,1.43-5.45,5.35-.8,13.33,3.2,18.09,1.46,1.73,3.15,3.29,5.09,4.44.49.24.99.66,1.48.63.45-.03.97-.67,1.33-.92,4.31-3.62,8.28-7.88,10.62-13.05,1.76-3.94,2.15-9.36-1.21-12.54-3.16-2.79-7.96-1.2-10.31,1.89-1.24,1.2-.35,1.73.31,2.86.86,1.49,1.28,3.19,1.37,4.89h0ZM51.37,47.44c-.12-1.69-.56-3.38-1.43-4.84-.34-.71-1.35-1.43-.85-2.32,2.03-3.11,6.05-5.25,9.69-3.68,5.05,2.48,4.81,9.44,2.77,13.87-2.38,5.23-6.38,9.5-10.78,13.1-.43.28-.89.91-1.46.96-.33.04-.62-.12-.87-.25-4.31-2.33-7.3-6.42-9.68-10.59-2.25-3.89-3.07-9.37.55-12.74,1.63-1.62,4.23-2.55,6.4-1.52.69.35,2.01.66,1.89,1.69-.79,2.42-1.87,4.82-1.37,7.43.1,2.33,2.74,4.53,4.48,2.15.64-.95.68-2.15.66-3.27h0Z"/>
      <path class="cls-1" d="M48.34,41.54c-1.06,2.73-2.28,6.24-.55,8.91.55.66,1.74.56,2.18-.16,1.16-2.9-.14-6.19-1.63-8.75h0ZM48.34,41.51c1.72,2.11,2.77,4.88,2.33,7.62-.07.91-.68,2-1.72,1.96-1.02.08-1.63-.9-1.87-1.76-.9-2.64-.19-5.51,1.25-7.82h0Z"/>
    </g>
  </g>
</svg>